<svg xmlns="http://www.w3.org/2000/svg" version="1.1" xmlns:xlink="http://www.w3.org/1999/xlink" xmlns:svgjs="http://svgjs.dev/svgjs" viewBox="0 0 800 800" width="800" height="800"><g stroke-width="2.75" stroke="hsla(0, 0%, 66%, 1.00)" fill="none"><circle r="3.3421052631578947" cx="0" cy="0" fill="hsla(0, 0%, 66%, 1.00)" stroke="none"></circle><circle r="3.3421052631578947" cx="44.44444444444444" cy="0" fill="hsla(0, 0%, 66%, 1.00)" stroke="none"></circle><circle r="3.3421052631578947" cx="88.88888888888889" cy="0" fill="hsla(0, 0%, 66%, 1.00)" stroke="none"></circle><circle r="3.3421052631578947" cx="133.33333333333331" cy="0" fill="hsla(0, 0%, 66%, 1.00)" stroke="none"></circle><circle r="3.3421052631578947" cx="177.77777777777777" cy="0" fill="hsla(0, 0%, 66%, 1.00)" stroke="none"></circle><circle r="3.3421052631578947" cx="222.22222222222223" cy="0" fill="hsla(0, 0%, 66%, 1.00)" stroke="none"></circle><circle r="3.3421052631578947" cx="266.6666666666667" cy="0" fill="hsla(0, 0%, 66%, 1.00)" stroke="none"></circle><circle r="3.3421052631578947" cx="311.11111111111114" cy="0" fill="hsla(0, 0%, 66%, 1.00)" stroke="none"></circle><circle r="3.3421052631578947" cx="355.5555555555556" cy="0" fill="hsla(0, 0%, 66%, 1.00)" stroke="none"></circle><circle r="3.3421052631578947" cx="400.00000000000006" cy="0" fill="hsla(0, 0%, 66%, 1.00)" stroke="none"></circle><circle r="3.3421052631578947" cx="444.4444444444445" cy="0" fill="hsla(0, 0%, 66%, 1.00)" stroke="none"></circle><circle r="3.3421052631578947" cx="488.88888888888897" cy="0" fill="hsla(0, 0%, 66%, 1.00)" stroke="none"></circle><circle r="3.3421052631578947" cx="533.3333333333334" cy="0" fill="hsla(0, 0%, 66%, 1.00)" stroke="none"></circle><circle r="3.3421052631578947" cx="577.7777777777778" cy="0" fill="hsla(0, 0%, 66%, 1.00)" stroke="none"></circle><circle r="3.3421052631578947" cx="622.2222222222223" cy="0" fill="hsla(0, 0%, 66%, 1.00)" stroke="none"></circle><circle r="3.3421052631578947" cx="666.6666666666667" cy="0" fill="hsla(0, 0%, 66%, 1.00)" stroke="none"></circle><circle r="3.3421052631578947" cx="711.1111111111112" cy="0" fill="hsla(0, 0%, 66%, 1.00)" stroke="none"></circle><circle r="3.3421052631578947" cx="755.5555555555557" cy="0" fill="hsla(0, 0%, 66%, 1.00)" stroke="none"></circle><circle r="3.3421052631578947" cx="800.0000000000001" cy="0" fill="hsla(0, 0%, 66%, 1.00)" stroke="none"></circle><circle r="3.3421052631578947" cx="0" cy="53.333333333333336" fill="hsla(0, 0%, 66%, 1.00)" stroke="none"></circle><circle r="3.3421052631578947" cx="44.44444444444444" cy="53.333333333333336" fill="hsla(0, 0%, 66%, 1.00)" stroke="none"></circle><circle r="3.3421052631578947" cx="88.88888888888889" cy="53.333333333333336" fill="hsla(0, 0%, 66%, 1.00)" stroke="none"></circle><circle r="3.3421052631578947" cx="133.33333333333331" cy="53.333333333333336" fill="hsla(0, 0%, 66%, 1.00)" stroke="none"></circle><circle r="3.3421052631578947" cx="177.77777777777777" cy="53.333333333333336" fill="hsla(0, 0%, 66%, 1.00)" stroke="none"></circle><circle r="3.3421052631578947" cx="222.22222222222223" cy="53.333333333333336" fill="hsla(0, 0%, 66%, 1.00)" stroke="none"></circle><circle r="3.3421052631578947" cx="266.6666666666667" cy="53.333333333333336" fill="hsla(0, 0%, 66%, 1.00)" stroke="none"></circle><circle r="3.3421052631578947" cx="311.11111111111114" cy="53.333333333333336" fill="hsla(0, 0%, 66%, 1.00)" stroke="none"></circle><circle r="3.3421052631578947" cx="355.5555555555556" cy="53.333333333333336" fill="hsla(0, 0%, 66%, 1.00)" stroke="none"></circle><circle r="3.3421052631578947" cx="400.00000000000006" cy="53.333333333333336" fill="hsla(0, 0%, 66%, 1.00)" stroke="none"></circle><circle r="3.3421052631578947" cx="444.4444444444445" cy="53.333333333333336" fill="hsla(0, 0%, 66%, 1.00)" stroke="none"></circle><circle r="3.3421052631578947" cx="488.88888888888897" cy="53.333333333333336" fill="hsla(0, 0%, 66%, 1.00)" stroke="none"></circle><circle r="3.3421052631578947" cx="533.3333333333334" cy="53.333333333333336" fill="hsla(0, 0%, 66%, 1.00)" stroke="none"></circle><circle r="3.3421052631578947" cx="577.7777777777778" cy="53.333333333333336" fill="hsla(0, 0%, 66%, 1.00)" stroke="none"></circle><circle r="3.3421052631578947" cx="622.2222222222223" cy="53.333333333333336" fill="hsla(0, 0%, 66%, 1.00)" stroke="none"></circle><circle r="3.3421052631578947" cx="666.6666666666667" cy="53.333333333333336" fill="hsla(0, 0%, 66%, 1.00)" stroke="none"></circle><circle r="3.3421052631578947" cx="711.1111111111112" cy="53.333333333333336" fill="hsla(0, 0%, 66%, 1.00)" stroke="none"></circle><circle r="3.3421052631578947" cx="755.5555555555557" cy="53.333333333333336" fill="hsla(0, 0%, 66%, 1.00)" stroke="none"></circle><circle r="3.3421052631578947" cx="800.0000000000001" cy="53.333333333333336" fill="hsla(0, 0%, 66%, 1.00)" stroke="none"></circle><circle r="3.3421052631578947" cx="0" cy="106.66666666666667" fill="hsla(0, 0%, 66%, 1.00)" stroke="none"></circle><circle r="3.3421052631578947" cx="44.44444444444444" cy="106.66666666666667" fill="hsla(0, 0%, 66%, 1.00)" stroke="none"></circle><circle r="3.3421052631578947" cx="88.88888888888889" cy="106.66666666666667" fill="hsla(0, 0%, 66%, 1.00)" stroke="none"></circle><circle r="3.3421052631578947" cx="133.33333333333331" cy="106.66666666666667" fill="hsla(0, 0%, 66%, 1.00)" stroke="none"></circle><circle r="3.3421052631578947" cx="177.77777777777777" cy="106.66666666666667" fill="hsla(0, 0%, 66%, 1.00)" stroke="none"></circle><circle r="3.3421052631578947" cx="222.22222222222223" cy="106.66666666666667" fill="hsla(0, 0%, 66%, 1.00)" stroke="none"></circle><circle r="3.3421052631578947" cx="266.6666666666667" cy="106.66666666666667" fill="hsla(0, 0%, 66%, 1.00)" stroke="none"></circle><circle r="3.3421052631578947" cx="311.11111111111114" cy="106.66666666666667" fill="hsla(0, 0%, 66%, 1.00)" stroke="none"></circle><circle r="3.3421052631578947" cx="355.5555555555556" cy="106.66666666666667" fill="hsla(0, 0%, 66%, 1.00)" stroke="none"></circle><circle r="3.3421052631578947" cx="400.00000000000006" cy="106.66666666666667" fill="hsla(0, 0%, 66%, 1.00)" stroke="none"></circle><circle r="3.3421052631578947" cx="444.4444444444445" cy="106.66666666666667" fill="hsla(0, 0%, 66%, 1.00)" stroke="none"></circle><circle r="3.3421052631578947" cx="488.88888888888897" cy="106.66666666666667" fill="hsla(0, 0%, 66%, 1.00)" stroke="none"></circle><circle r="3.3421052631578947" cx="533.3333333333334" cy="106.66666666666667" fill="hsla(0, 0%, 66%, 1.00)" stroke="none"></circle><circle r="3.3421052631578947" cx="577.7777777777778" cy="106.66666666666667" fill="hsla(0, 0%, 66%, 1.00)" stroke="none"></circle><circle r="3.3421052631578947" cx="622.2222222222223" cy="106.66666666666667" fill="hsla(0, 0%, 66%, 1.00)" stroke="none"></circle><circle r="3.3421052631578947" cx="666.6666666666667" cy="106.66666666666667" fill="hsla(0, 0%, 66%, 1.00)" stroke="none"></circle><circle r="3.3421052631578947" cx="711.1111111111112" cy="106.66666666666667" fill="hsla(0, 0%, 66%, 1.00)" stroke="none"></circle><circle r="3.3421052631578947" cx="755.5555555555557" cy="106.66666666666667" fill="hsla(0, 0%, 66%, 1.00)" stroke="none"></circle><circle r="3.3421052631578947" cx="800.0000000000001" cy="106.66666666666667" fill="hsla(0, 0%, 66%, 1.00)" stroke="none"></circle><circle r="3.3421052631578947" cx="0" cy="160" fill="hsla(0, 0%, 66%, 1.00)" stroke="none"></circle><circle r="3.3421052631578947" cx="44.44444444444444" cy="160" fill="hsla(0, 0%, 66%, 1.00)" stroke="none"></circle><circle r="3.3421052631578947" cx="88.88888888888889" cy="160" fill="hsla(0, 0%, 66%, 1.00)" stroke="none"></circle><circle r="3.3421052631578947" cx="133.33333333333331" cy="160" fill="hsla(0, 0%, 66%, 1.00)" stroke="none"></circle><circle r="3.3421052631578947" cx="177.77777777777777" cy="160" fill="hsla(0, 0%, 66%, 1.00)" stroke="none"></circle><circle r="3.3421052631578947" cx="222.22222222222223" cy="160" fill="hsla(0, 0%, 66%, 1.00)" stroke="none"></circle><circle r="3.3421052631578947" cx="266.6666666666667" cy="160" fill="hsla(0, 0%, 66%, 1.00)" stroke="none"></circle><circle r="3.3421052631578947" cx="311.11111111111114" cy="160" fill="hsla(0, 0%, 66%, 1.00)" stroke="none"></circle><circle r="3.3421052631578947" cx="355.5555555555556" cy="160" fill="hsla(0, 0%, 66%, 1.00)" stroke="none"></circle><circle r="3.3421052631578947" cx="400.00000000000006" cy="160" fill="hsla(0, 0%, 66%, 1.00)" stroke="none"></circle><circle r="3.3421052631578947" cx="444.4444444444445" cy="160" fill="hsla(0, 0%, 66%, 1.00)" stroke="none"></circle><circle r="3.3421052631578947" cx="488.88888888888897" cy="160" fill="hsla(0, 0%, 66%, 1.00)" stroke="none"></circle><circle r="3.3421052631578947" cx="533.3333333333334" cy="160" fill="hsla(0, 0%, 66%, 1.00)" stroke="none"></circle><circle r="3.3421052631578947" cx="577.7777777777778" cy="160" fill="hsla(0, 0%, 66%, 1.00)" stroke="none"></circle><circle r="3.3421052631578947" cx="622.2222222222223" cy="160" fill="hsla(0, 0%, 66%, 1.00)" stroke="none"></circle><circle r="3.3421052631578947" cx="666.6666666666667" cy="160" fill="hsla(0, 0%, 66%, 1.00)" stroke="none"></circle><circle r="3.3421052631578947" cx="711.1111111111112" cy="160" fill="hsla(0, 0%, 66%, 1.00)" stroke="none"></circle><circle r="3.3421052631578947" cx="755.5555555555557" cy="160" fill="hsla(0, 0%, 66%, 1.00)" stroke="none"></circle><circle r="3.3421052631578947" cx="800.0000000000001" cy="160" fill="hsla(0, 0%, 66%, 1.00)" stroke="none"></circle><circle r="3.3421052631578947" cx="0" cy="213.33333333333334" fill="hsla(0, 0%, 66%, 1.00)" stroke="none"></circle><circle r="3.3421052631578947" cx="44.44444444444444" cy="213.33333333333334" fill="hsla(0, 0%, 66%, 1.00)" stroke="none"></circle><circle r="3.3421052631578947" cx="88.88888888888889" cy="213.33333333333334" fill="hsla(0, 0%, 66%, 1.00)" stroke="none"></circle><circle r="3.3421052631578947" cx="133.33333333333331" cy="213.33333333333334" fill="hsla(0, 0%, 66%, 1.00)" stroke="none"></circle><circle r="3.3421052631578947" cx="177.77777777777777" cy="213.33333333333334" fill="hsla(0, 0%, 66%, 1.00)" stroke="none"></circle><circle r="3.3421052631578947" cx="222.22222222222223" cy="213.33333333333334" fill="hsla(0, 0%, 66%, 1.00)" stroke="none"></circle><circle r="3.3421052631578947" cx="266.6666666666667" cy="213.33333333333334" fill="hsla(0, 0%, 66%, 1.00)" stroke="none"></circle><circle r="3.3421052631578947" cx="311.11111111111114" cy="213.33333333333334" fill="hsla(0, 0%, 66%, 1.00)" stroke="none"></circle><circle r="3.3421052631578947" cx="355.5555555555556" cy="213.33333333333334" fill="hsla(0, 0%, 66%, 1.00)" stroke="none"></circle><circle r="3.3421052631578947" cx="400.00000000000006" cy="213.33333333333334" fill="hsla(0, 0%, 66%, 1.00)" stroke="none"></circle><circle r="3.3421052631578947" cx="444.4444444444445" cy="213.33333333333334" fill="hsla(0, 0%, 66%, 1.00)" stroke="none"></circle><circle r="3.3421052631578947" cx="488.88888888888897" cy="213.33333333333334" fill="hsla(0, 0%, 66%, 1.00)" stroke="none"></circle><circle r="3.3421052631578947" cx="533.3333333333334" cy="213.33333333333334" fill="hsla(0, 0%, 66%, 1.00)" stroke="none"></circle><circle r="3.3421052631578947" cx="577.7777777777778" cy="213.33333333333334" fill="hsla(0, 0%, 66%, 1.00)" stroke="none"></circle><circle r="3.3421052631578947" cx="622.2222222222223" cy="213.33333333333334" fill="hsla(0, 0%, 66%, 1.00)" stroke="none"></circle><circle r="3.3421052631578947" cx="666.6666666666667" cy="213.33333333333334" fill="hsla(0, 0%, 66%, 1.00)" stroke="none"></circle><circle r="3.3421052631578947" cx="711.1111111111112" cy="213.33333333333334" fill="hsla(0, 0%, 66%, 1.00)" stroke="none"></circle><circle r="3.3421052631578947" cx="755.5555555555557" cy="213.33333333333334" fill="hsla(0, 0%, 66%, 1.00)" stroke="none"></circle><circle r="3.3421052631578947" cx="800.0000000000001" cy="213.33333333333334" fill="hsla(0, 0%, 66%, 1.00)" stroke="none"></circle><circle r="3.3421052631578947" cx="0" cy="266.6666666666667" fill="hsla(0, 0%, 66%, 1.00)" stroke="none"></circle><circle r="3.3421052631578947" cx="44.44444444444444" cy="266.6666666666667" fill="hsla(0, 0%, 66%, 1.00)" stroke="none"></circle><circle r="3.3421052631578947" cx="88.88888888888889" cy="266.6666666666667" fill="hsla(0, 0%, 66%, 1.00)" stroke="none"></circle><circle r="3.3421052631578947" cx="133.33333333333331" cy="266.6666666666667" fill="hsla(0, 0%, 66%, 1.00)" stroke="none"></circle><circle r="3.3421052631578947" cx="177.77777777777777" cy="266.6666666666667" fill="hsla(0, 0%, 66%, 1.00)" stroke="none"></circle><circle r="3.3421052631578947" cx="222.22222222222223" cy="266.6666666666667" fill="hsla(0, 0%, 66%, 1.00)" stroke="none"></circle><circle r="3.3421052631578947" cx="266.6666666666667" cy="266.6666666666667" fill="hsla(0, 0%, 66%, 1.00)" stroke="none"></circle><circle r="3.3421052631578947" cx="311.11111111111114" cy="266.6666666666667" fill="hsla(0, 0%, 66%, 1.00)" stroke="none"></circle><circle r="3.3421052631578947" cx="355.5555555555556" cy="266.6666666666667" fill="hsla(0, 0%, 66%, 1.00)" stroke="none"></circle><circle r="3.3421052631578947" cx="400.00000000000006" cy="266.6666666666667" fill="hsla(0, 0%, 66%, 1.00)" stroke="none"></circle><circle r="3.3421052631578947" cx="444.4444444444445" cy="266.6666666666667" fill="hsla(0, 0%, 66%, 1.00)" stroke="none"></circle><circle r="3.3421052631578947" cx="488.88888888888897" cy="266.6666666666667" fill="hsla(0, 0%, 66%, 1.00)" stroke="none"></circle><circle r="3.3421052631578947" cx="533.3333333333334" cy="266.6666666666667" fill="hsla(0, 0%, 66%, 1.00)" stroke="none"></circle><circle r="3.3421052631578947" cx="577.7777777777778" cy="266.6666666666667" fill="hsla(0, 0%, 66%, 1.00)" stroke="none"></circle><circle r="3.3421052631578947" cx="622.2222222222223" cy="266.6666666666667" fill="hsla(0, 0%, 66%, 1.00)" stroke="none"></circle><circle r="3.3421052631578947" cx="666.6666666666667" cy="266.6666666666667" fill="hsla(0, 0%, 66%, 1.00)" stroke="none"></circle><circle r="3.3421052631578947" cx="711.1111111111112" cy="266.6666666666667" fill="hsla(0, 0%, 66%, 1.00)" stroke="none"></circle><circle r="3.3421052631578947" cx="755.5555555555557" cy="266.6666666666667" fill="hsla(0, 0%, 66%, 1.00)" stroke="none"></circle><circle r="3.3421052631578947" cx="800.0000000000001" cy="266.6666666666667" fill="hsla(0, 0%, 66%, 1.00)" stroke="none"></circle><circle r="3.3421052631578947" cx="0" cy="320" fill="hsla(0, 0%, 66%, 1.00)" stroke="none"></circle><circle r="3.3421052631578947" cx="44.44444444444444" cy="320" fill="hsla(0, 0%, 66%, 1.00)" stroke="none"></circle><circle r="3.3421052631578947" cx="88.88888888888889" cy="320" fill="hsla(0, 0%, 66%, 1.00)" stroke="none"></circle><circle r="3.3421052631578947" cx="133.33333333333331" cy="320" fill="hsla(0, 0%, 66%, 1.00)" stroke="none"></circle><circle r="3.3421052631578947" cx="177.77777777777777" cy="320" fill="hsla(0, 0%, 66%, 1.00)" stroke="none"></circle><circle r="3.3421052631578947" cx="222.22222222222223" cy="320" fill="hsla(0, 0%, 66%, 1.00)" stroke="none"></circle><circle r="3.3421052631578947" cx="266.6666666666667" cy="320" fill="hsla(0, 0%, 66%, 1.00)" stroke="none"></circle><circle r="3.3421052631578947" cx="311.11111111111114" cy="320" fill="hsla(0, 0%, 66%, 1.00)" stroke="none"></circle><circle r="3.3421052631578947" cx="355.5555555555556" cy="320" fill="hsla(0, 0%, 66%, 1.00)" stroke="none"></circle><circle r="3.3421052631578947" cx="400.00000000000006" cy="320" fill="hsla(0, 0%, 66%, 1.00)" stroke="none"></circle><circle r="3.3421052631578947" cx="444.4444444444445" cy="320" fill="hsla(0, 0%, 66%, 1.00)" stroke="none"></circle><circle r="3.3421052631578947" cx="488.88888888888897" cy="320" fill="hsla(0, 0%, 66%, 1.00)" stroke="none"></circle><circle r="3.3421052631578947" cx="533.3333333333334" cy="320" fill="hsla(0, 0%, 66%, 1.00)" stroke="none"></circle><circle r="3.3421052631578947" cx="577.7777777777778" cy="320" fill="hsla(0, 0%, 66%, 1.00)" stroke="none"></circle><circle r="3.3421052631578947" cx="622.2222222222223" cy="320" fill="hsla(0, 0%, 66%, 1.00)" stroke="none"></circle><circle r="3.3421052631578947" cx="666.6666666666667" cy="320" fill="hsla(0, 0%, 66%, 1.00)" stroke="none"></circle><circle r="3.3421052631578947" cx="711.1111111111112" cy="320" fill="hsla(0, 0%, 66%, 1.00)" stroke="none"></circle><circle r="3.3421052631578947" cx="755.5555555555557" cy="320" fill="hsla(0, 0%, 66%, 1.00)" stroke="none"></circle><circle r="3.3421052631578947" cx="800.0000000000001" cy="320" fill="hsla(0, 0%, 66%, 1.00)" stroke="none"></circle><circle r="3.3421052631578947" cx="0" cy="373.3333333333333" fill="hsla(0, 0%, 66%, 1.00)" stroke="none"></circle><circle r="3.3421052631578947" cx="44.44444444444444" cy="373.3333333333333" fill="hsla(0, 0%, 66%, 1.00)" stroke="none"></circle><circle r="3.3421052631578947" cx="88.88888888888889" cy="373.3333333333333" fill="hsla(0, 0%, 66%, 1.00)" stroke="none"></circle><circle r="3.3421052631578947" cx="133.33333333333331" cy="373.3333333333333" fill="hsla(0, 0%, 66%, 1.00)" stroke="none"></circle><circle r="3.3421052631578947" cx="177.77777777777777" cy="373.3333333333333" fill="hsla(0, 0%, 66%, 1.00)" stroke="none"></circle><circle r="3.3421052631578947" cx="222.22222222222223" cy="373.3333333333333" fill="hsla(0, 0%, 66%, 1.00)" stroke="none"></circle><circle r="3.3421052631578947" cx="266.6666666666667" cy="373.3333333333333" fill="hsla(0, 0%, 66%, 1.00)" stroke="none"></circle><circle r="3.3421052631578947" cx="311.11111111111114" cy="373.3333333333333" fill="hsla(0, 0%, 66%, 1.00)" stroke="none"></circle><circle r="3.3421052631578947" cx="355.5555555555556" cy="373.3333333333333" fill="hsla(0, 0%, 66%, 1.00)" stroke="none"></circle><circle r="3.3421052631578947" cx="400.00000000000006" cy="373.3333333333333" fill="hsla(0, 0%, 66%, 1.00)" stroke="none"></circle><circle r="3.3421052631578947" cx="444.4444444444445" cy="373.3333333333333" fill="hsla(0, 0%, 66%, 1.00)" stroke="none"></circle><circle r="3.3421052631578947" cx="488.88888888888897" cy="373.3333333333333" fill="hsla(0, 0%, 66%, 1.00)" stroke="none"></circle><circle r="3.3421052631578947" cx="533.3333333333334" cy="373.3333333333333" fill="hsla(0, 0%, 66%, 1.00)" stroke="none"></circle><circle r="3.3421052631578947" cx="577.7777777777778" cy="373.3333333333333" fill="hsla(0, 0%, 66%, 1.00)" stroke="none"></circle><circle r="3.3421052631578947" cx="622.2222222222223" cy="373.3333333333333" fill="hsla(0, 0%, 66%, 1.00)" stroke="none"></circle><circle r="3.3421052631578947" cx="666.6666666666667" cy="373.3333333333333" fill="hsla(0, 0%, 66%, 1.00)" stroke="none"></circle><circle r="3.3421052631578947" cx="711.1111111111112" cy="373.3333333333333" fill="hsla(0, 0%, 66%, 1.00)" stroke="none"></circle><circle r="3.3421052631578947" cx="755.5555555555557" cy="373.3333333333333" fill="hsla(0, 0%, 66%, 1.00)" stroke="none"></circle><circle r="3.3421052631578947" cx="800.0000000000001" cy="373.3333333333333" fill="hsla(0, 0%, 66%, 1.00)" stroke="none"></circle><circle r="3.3421052631578947" cx="0" cy="426.66666666666663" fill="hsla(0, 0%, 66%, 1.00)" stroke="none"></circle><circle r="3.3421052631578947" cx="44.44444444444444" cy="426.66666666666663" fill="hsla(0, 0%, 66%, 1.00)" stroke="none"></circle><circle r="3.3421052631578947" cx="88.88888888888889" cy="426.66666666666663" fill="hsla(0, 0%, 66%, 1.00)" stroke="none"></circle><circle r="3.3421052631578947" cx="133.33333333333331" cy="426.66666666666663" fill="hsla(0, 0%, 66%, 1.00)" stroke="none"></circle><circle r="3.3421052631578947" cx="177.77777777777777" cy="426.66666666666663" fill="hsla(0, 0%, 66%, 1.00)" stroke="none"></circle><circle r="3.3421052631578947" cx="222.22222222222223" cy="426.66666666666663" fill="hsla(0, 0%, 66%, 1.00)" stroke="none"></circle><circle r="3.3421052631578947" cx="266.6666666666667" cy="426.66666666666663" fill="hsla(0, 0%, 66%, 1.00)" stroke="none"></circle><circle r="3.3421052631578947" cx="311.11111111111114" cy="426.66666666666663" fill="hsla(0, 0%, 66%, 1.00)" stroke="none"></circle><circle r="3.3421052631578947" cx="355.5555555555556" cy="426.66666666666663" fill="hsla(0, 0%, 66%, 1.00)" stroke="none"></circle><circle r="3.3421052631578947" cx="400.00000000000006" cy="426.66666666666663" fill="hsla(0, 0%, 66%, 1.00)" stroke="none"></circle><circle r="3.3421052631578947" cx="444.4444444444445" cy="426.66666666666663" fill="hsla(0, 0%, 66%, 1.00)" stroke="none"></circle><circle r="3.3421052631578947" cx="488.88888888888897" cy="426.66666666666663" fill="hsla(0, 0%, 66%, 1.00)" stroke="none"></circle><circle r="3.3421052631578947" cx="533.3333333333334" cy="426.66666666666663" fill="hsla(0, 0%, 66%, 1.00)" stroke="none"></circle><circle r="3.3421052631578947" cx="577.7777777777778" cy="426.66666666666663" fill="hsla(0, 0%, 66%, 1.00)" stroke="none"></circle><circle r="3.3421052631578947" cx="622.2222222222223" cy="426.66666666666663" fill="hsla(0, 0%, 66%, 1.00)" stroke="none"></circle><circle r="3.3421052631578947" cx="666.6666666666667" cy="426.66666666666663" fill="hsla(0, 0%, 66%, 1.00)" stroke="none"></circle><circle r="3.3421052631578947" cx="711.1111111111112" cy="426.66666666666663" fill="hsla(0, 0%, 66%, 1.00)" stroke="none"></circle><circle r="3.3421052631578947" cx="755.5555555555557" cy="426.66666666666663" fill="hsla(0, 0%, 66%, 1.00)" stroke="none"></circle><circle r="3.3421052631578947" cx="800.0000000000001" cy="426.66666666666663" fill="hsla(0, 0%, 66%, 1.00)" stroke="none"></circle><circle r="3.3421052631578947" cx="0" cy="479.99999999999994" fill="hsla(0, 0%, 66%, 1.00)" stroke="none"></circle><circle r="3.3421052631578947" cx="44.44444444444444" cy="479.99999999999994" fill="hsla(0, 0%, 66%, 1.00)" stroke="none"></circle><circle r="3.3421052631578947" cx="88.88888888888889" cy="479.99999999999994" fill="hsla(0, 0%, 66%, 1.00)" stroke="none"></circle><circle r="3.3421052631578947" cx="133.33333333333331" cy="479.99999999999994" fill="hsla(0, 0%, 66%, 1.00)" stroke="none"></circle><circle r="3.3421052631578947" cx="177.77777777777777" cy="479.99999999999994" fill="hsla(0, 0%, 66%, 1.00)" stroke="none"></circle><circle r="3.3421052631578947" cx="222.22222222222223" cy="479.99999999999994" fill="hsla(0, 0%, 66%, 1.00)" stroke="none"></circle><circle r="3.3421052631578947" cx="266.6666666666667" cy="479.99999999999994" fill="hsla(0, 0%, 66%, 1.00)" stroke="none"></circle><circle r="3.3421052631578947" cx="311.11111111111114" cy="479.99999999999994" fill="hsla(0, 0%, 66%, 1.00)" stroke="none"></circle><circle r="3.3421052631578947" cx="355.5555555555556" cy="479.99999999999994" fill="hsla(0, 0%, 66%, 1.00)" stroke="none"></circle><circle r="3.3421052631578947" cx="400.00000000000006" cy="479.99999999999994" fill="hsla(0, 0%, 66%, 1.00)" stroke="none"></circle><circle r="3.3421052631578947" cx="444.4444444444445" cy="479.99999999999994" fill="hsla(0, 0%, 66%, 1.00)" stroke="none"></circle><circle r="3.3421052631578947" cx="488.88888888888897" cy="479.99999999999994" fill="hsla(0, 0%, 66%, 1.00)" stroke="none"></circle><circle r="3.3421052631578947" cx="533.3333333333334" cy="479.99999999999994" fill="hsla(0, 0%, 66%, 1.00)" stroke="none"></circle><circle r="3.3421052631578947" cx="577.7777777777778" cy="479.99999999999994" fill="hsla(0, 0%, 66%, 1.00)" stroke="none"></circle><circle r="3.3421052631578947" cx="622.2222222222223" cy="479.99999999999994" fill="hsla(0, 0%, 66%, 1.00)" stroke="none"></circle><circle r="3.3421052631578947" cx="666.6666666666667" cy="479.99999999999994" fill="hsla(0, 0%, 66%, 1.00)" stroke="none"></circle><circle r="3.3421052631578947" cx="711.1111111111112" cy="479.99999999999994" fill="hsla(0, 0%, 66%, 1.00)" stroke="none"></circle><circle r="3.3421052631578947" cx="755.5555555555557" cy="479.99999999999994" fill="hsla(0, 0%, 66%, 1.00)" stroke="none"></circle><circle r="3.3421052631578947" cx="800.0000000000001" cy="479.99999999999994" fill="hsla(0, 0%, 66%, 1.00)" stroke="none"></circle><circle r="3.3421052631578947" cx="0" cy="533.3333333333333" fill="hsla(0, 0%, 66%, 1.00)" stroke="none"></circle><circle r="3.3421052631578947" cx="44.44444444444444" cy="533.3333333333333" fill="hsla(0, 0%, 66%, 1.00)" stroke="none"></circle><circle r="3.3421052631578947" cx="88.88888888888889" cy="533.3333333333333" fill="hsla(0, 0%, 66%, 1.00)" stroke="none"></circle><circle r="3.3421052631578947" cx="133.33333333333331" cy="533.3333333333333" fill="hsla(0, 0%, 66%, 1.00)" stroke="none"></circle><circle r="3.3421052631578947" cx="177.77777777777777" cy="533.3333333333333" fill="hsla(0, 0%, 66%, 1.00)" stroke="none"></circle><circle r="3.3421052631578947" cx="222.22222222222223" cy="533.3333333333333" fill="hsla(0, 0%, 66%, 1.00)" stroke="none"></circle><circle r="3.3421052631578947" cx="266.6666666666667" cy="533.3333333333333" fill="hsla(0, 0%, 66%, 1.00)" stroke="none"></circle><circle r="3.3421052631578947" cx="311.11111111111114" cy="533.3333333333333" fill="hsla(0, 0%, 66%, 1.00)" stroke="none"></circle><circle r="3.3421052631578947" cx="355.5555555555556" cy="533.3333333333333" fill="hsla(0, 0%, 66%, 1.00)" stroke="none"></circle><circle r="3.3421052631578947" cx="400.00000000000006" cy="533.3333333333333" fill="hsla(0, 0%, 66%, 1.00)" stroke="none"></circle><circle r="3.3421052631578947" cx="444.4444444444445" cy="533.3333333333333" fill="hsla(0, 0%, 66%, 1.00)" stroke="none"></circle><circle r="3.3421052631578947" cx="488.88888888888897" cy="533.3333333333333" fill="hsla(0, 0%, 66%, 1.00)" stroke="none"></circle><circle r="3.3421052631578947" cx="533.3333333333334" cy="533.3333333333333" fill="hsla(0, 0%, 66%, 1.00)" stroke="none"></circle><circle r="3.3421052631578947" cx="577.7777777777778" cy="533.3333333333333" fill="hsla(0, 0%, 66%, 1.00)" stroke="none"></circle><circle r="3.3421052631578947" cx="622.2222222222223" cy="533.3333333333333" fill="hsla(0, 0%, 66%, 1.00)" stroke="none"></circle><circle r="3.3421052631578947" cx="666.6666666666667" cy="533.3333333333333" fill="hsla(0, 0%, 66%, 1.00)" stroke="none"></circle><circle r="3.3421052631578947" cx="711.1111111111112" cy="533.3333333333333" fill="hsla(0, 0%, 66%, 1.00)" stroke="none"></circle><circle r="3.3421052631578947" cx="755.5555555555557" cy="533.3333333333333" fill="hsla(0, 0%, 66%, 1.00)" stroke="none"></circle><circle r="3.3421052631578947" cx="800.0000000000001" cy="533.3333333333333" fill="hsla(0, 0%, 66%, 1.00)" stroke="none"></circle><circle r="3.3421052631578947" cx="0" cy="586.6666666666666" fill="hsla(0, 0%, 66%, 1.00)" stroke="none"></circle><circle r="3.3421052631578947" cx="44.44444444444444" cy="586.6666666666666" fill="hsla(0, 0%, 66%, 1.00)" stroke="none"></circle><circle r="3.3421052631578947" cx="88.88888888888889" cy="586.6666666666666" fill="hsla(0, 0%, 66%, 1.00)" stroke="none"></circle><circle r="3.3421052631578947" cx="133.33333333333331" cy="586.6666666666666" fill="hsla(0, 0%, 66%, 1.00)" stroke="none"></circle><circle r="3.3421052631578947" cx="177.77777777777777" cy="586.6666666666666" fill="hsla(0, 0%, 66%, 1.00)" stroke="none"></circle><circle r="3.3421052631578947" cx="222.22222222222223" cy="586.6666666666666" fill="hsla(0, 0%, 66%, 1.00)" stroke="none"></circle><circle r="3.3421052631578947" cx="266.6666666666667" cy="586.6666666666666" fill="hsla(0, 0%, 66%, 1.00)" stroke="none"></circle><circle r="3.3421052631578947" cx="311.11111111111114" cy="586.6666666666666" fill="hsla(0, 0%, 66%, 1.00)" stroke="none"></circle><circle r="3.3421052631578947" cx="355.5555555555556" cy="586.6666666666666" fill="hsla(0, 0%, 66%, 1.00)" stroke="none"></circle><circle r="3.3421052631578947" cx="400.00000000000006" cy="586.6666666666666" fill="hsla(0, 0%, 66%, 1.00)" stroke="none"></circle><circle r="3.3421052631578947" cx="444.4444444444445" cy="586.6666666666666" fill="hsla(0, 0%, 66%, 1.00)" stroke="none"></circle><circle r="3.3421052631578947" cx="488.88888888888897" cy="586.6666666666666" fill="hsla(0, 0%, 66%, 1.00)" stroke="none"></circle><circle r="3.3421052631578947" cx="533.3333333333334" cy="586.6666666666666" fill="hsla(0, 0%, 66%, 1.00)" stroke="none"></circle><circle r="3.3421052631578947" cx="577.7777777777778" cy="586.6666666666666" fill="hsla(0, 0%, 66%, 1.00)" stroke="none"></circle><circle r="3.3421052631578947" cx="622.2222222222223" cy="586.6666666666666" fill="hsla(0, 0%, 66%, 1.00)" stroke="none"></circle><circle r="3.3421052631578947" cx="666.6666666666667" cy="586.6666666666666" fill="hsla(0, 0%, 66%, 1.00)" stroke="none"></circle><circle r="3.3421052631578947" cx="711.1111111111112" cy="586.6666666666666" fill="hsla(0, 0%, 66%, 1.00)" stroke="none"></circle><circle r="3.3421052631578947" cx="755.5555555555557" cy="586.6666666666666" fill="hsla(0, 0%, 66%, 1.00)" stroke="none"></circle><circle r="3.3421052631578947" cx="800.0000000000001" cy="586.6666666666666" fill="hsla(0, 0%, 66%, 1.00)" stroke="none"></circle><circle r="3.3421052631578947" cx="0" cy="640" fill="hsla(0, 0%, 66%, 1.00)" stroke="none"></circle><circle r="3.3421052631578947" cx="44.44444444444444" cy="640" fill="hsla(0, 0%, 66%, 1.00)" stroke="none"></circle><circle r="3.3421052631578947" cx="88.88888888888889" cy="640" fill="hsla(0, 0%, 66%, 1.00)" stroke="none"></circle><circle r="3.3421052631578947" cx="133.33333333333331" cy="640" fill="hsla(0, 0%, 66%, 1.00)" stroke="none"></circle><circle r="3.3421052631578947" cx="177.77777777777777" cy="640" fill="hsla(0, 0%, 66%, 1.00)" stroke="none"></circle><circle r="3.3421052631578947" cx="222.22222222222223" cy="640" fill="hsla(0, 0%, 66%, 1.00)" stroke="none"></circle><circle r="3.3421052631578947" cx="266.6666666666667" cy="640" fill="hsla(0, 0%, 66%, 1.00)" stroke="none"></circle><circle r="3.3421052631578947" cx="311.11111111111114" cy="640" fill="hsla(0, 0%, 66%, 1.00)" stroke="none"></circle><circle r="3.3421052631578947" cx="355.5555555555556" cy="640" fill="hsla(0, 0%, 66%, 1.00)" stroke="none"></circle><circle r="3.3421052631578947" cx="400.00000000000006" cy="640" fill="hsla(0, 0%, 66%, 1.00)" stroke="none"></circle><circle r="3.3421052631578947" cx="444.4444444444445" cy="640" fill="hsla(0, 0%, 66%, 1.00)" stroke="none"></circle><circle r="3.3421052631578947" cx="488.88888888888897" cy="640" fill="hsla(0, 0%, 66%, 1.00)" stroke="none"></circle><circle r="3.3421052631578947" cx="533.3333333333334" cy="640" fill="hsla(0, 0%, 66%, 1.00)" stroke="none"></circle><circle r="3.3421052631578947" cx="577.7777777777778" cy="640" fill="hsla(0, 0%, 66%, 1.00)" stroke="none"></circle><circle r="3.3421052631578947" cx="622.2222222222223" cy="640" fill="hsla(0, 0%, 66%, 1.00)" stroke="none"></circle><circle r="3.3421052631578947" cx="666.6666666666667" cy="640" fill="hsla(0, 0%, 66%, 1.00)" stroke="none"></circle><circle r="3.3421052631578947" cx="711.1111111111112" cy="640" fill="hsla(0, 0%, 66%, 1.00)" stroke="none"></circle><circle r="3.3421052631578947" cx="755.5555555555557" cy="640" fill="hsla(0, 0%, 66%, 1.00)" stroke="none"></circle><circle r="3.3421052631578947" cx="800.0000000000001" cy="640" fill="hsla(0, 0%, 66%, 1.00)" stroke="none"></circle><circle r="3.3421052631578947" cx="0" cy="693.3333333333334" fill="hsla(0, 0%, 66%, 1.00)" stroke="none"></circle><circle r="3.3421052631578947" cx="44.44444444444444" cy="693.3333333333334" fill="hsla(0, 0%, 66%, 1.00)" stroke="none"></circle><circle r="3.3421052631578947" cx="88.88888888888889" cy="693.3333333333334" fill="hsla(0, 0%, 66%, 1.00)" stroke="none"></circle><circle r="3.3421052631578947" cx="133.33333333333331" cy="693.3333333333334" fill="hsla(0, 0%, 66%, 1.00)" stroke="none"></circle><circle r="3.3421052631578947" cx="177.77777777777777" cy="693.3333333333334" fill="hsla(0, 0%, 66%, 1.00)" stroke="none"></circle><circle r="3.3421052631578947" cx="222.22222222222223" cy="693.3333333333334" fill="hsla(0, 0%, 66%, 1.00)" stroke="none"></circle><circle r="3.3421052631578947" cx="266.6666666666667" cy="693.3333333333334" fill="hsla(0, 0%, 66%, 1.00)" stroke="none"></circle><circle r="3.3421052631578947" cx="311.11111111111114" cy="693.3333333333334" fill="hsla(0, 0%, 66%, 1.00)" stroke="none"></circle><circle r="3.3421052631578947" cx="355.5555555555556" cy="693.3333333333334" fill="hsla(0, 0%, 66%, 1.00)" stroke="none"></circle><circle r="3.3421052631578947" cx="400.00000000000006" cy="693.3333333333334" fill="hsla(0, 0%, 66%, 1.00)" stroke="none"></circle><circle r="3.3421052631578947" cx="444.4444444444445" cy="693.3333333333334" fill="hsla(0, 0%, 66%, 1.00)" stroke="none"></circle><circle r="3.3421052631578947" cx="488.88888888888897" cy="693.3333333333334" fill="hsla(0, 0%, 66%, 1.00)" stroke="none"></circle><circle r="3.3421052631578947" cx="533.3333333333334" cy="693.3333333333334" fill="hsla(0, 0%, 66%, 1.00)" stroke="none"></circle><circle r="3.3421052631578947" cx="577.7777777777778" cy="693.3333333333334" fill="hsla(0, 0%, 66%, 1.00)" stroke="none"></circle><circle r="3.3421052631578947" cx="622.2222222222223" cy="693.3333333333334" fill="hsla(0, 0%, 66%, 1.00)" stroke="none"></circle><circle r="3.3421052631578947" cx="666.6666666666667" cy="693.3333333333334" fill="hsla(0, 0%, 66%, 1.00)" stroke="none"></circle><circle r="3.3421052631578947" cx="711.1111111111112" cy="693.3333333333334" fill="hsla(0, 0%, 66%, 1.00)" stroke="none"></circle><circle r="3.3421052631578947" cx="755.5555555555557" cy="693.3333333333334" fill="hsla(0, 0%, 66%, 1.00)" stroke="none"></circle><circle r="3.3421052631578947" cx="800.0000000000001" cy="693.3333333333334" fill="hsla(0, 0%, 66%, 1.00)" stroke="none"></circle><circle r="3.3421052631578947" cx="0" cy="746.6666666666667" fill="hsla(0, 0%, 66%, 1.00)" stroke="none"></circle><circle r="3.3421052631578947" cx="44.44444444444444" cy="746.6666666666667" fill="hsla(0, 0%, 66%, 1.00)" stroke="none"></circle><circle r="3.3421052631578947" cx="88.88888888888889" cy="746.6666666666667" fill="hsla(0, 0%, 66%, 1.00)" stroke="none"></circle><circle r="3.3421052631578947" cx="133.33333333333331" cy="746.6666666666667" fill="hsla(0, 0%, 66%, 1.00)" stroke="none"></circle><circle r="3.3421052631578947" cx="177.77777777777777" cy="746.6666666666667" fill="hsla(0, 0%, 66%, 1.00)" stroke="none"></circle><circle r="3.3421052631578947" cx="222.22222222222223" cy="746.6666666666667" fill="hsla(0, 0%, 66%, 1.00)" stroke="none"></circle><circle r="3.3421052631578947" cx="266.6666666666667" cy="746.6666666666667" fill="hsla(0, 0%, 66%, 1.00)" stroke="none"></circle><circle r="3.3421052631578947" cx="311.11111111111114" cy="746.6666666666667" fill="hsla(0, 0%, 66%, 1.00)" stroke="none"></circle><circle r="3.3421052631578947" cx="355.5555555555556" cy="746.6666666666667" fill="hsla(0, 0%, 66%, 1.00)" stroke="none"></circle><circle r="3.3421052631578947" cx="400.00000000000006" cy="746.6666666666667" fill="hsla(0, 0%, 66%, 1.00)" stroke="none"></circle><circle r="3.3421052631578947" cx="444.4444444444445" cy="746.6666666666667" fill="hsla(0, 0%, 66%, 1.00)" stroke="none"></circle><circle r="3.3421052631578947" cx="488.88888888888897" cy="746.6666666666667" fill="hsla(0, 0%, 66%, 1.00)" stroke="none"></circle><circle r="3.3421052631578947" cx="533.3333333333334" cy="746.6666666666667" fill="hsla(0, 0%, 66%, 1.00)" stroke="none"></circle><circle r="3.3421052631578947" cx="577.7777777777778" cy="746.6666666666667" fill="hsla(0, 0%, 66%, 1.00)" stroke="none"></circle><circle r="3.3421052631578947" cx="622.2222222222223" cy="746.6666666666667" fill="hsla(0, 0%, 66%, 1.00)" stroke="none"></circle><circle r="3.3421052631578947" cx="666.6666666666667" cy="746.6666666666667" fill="hsla(0, 0%, 66%, 1.00)" stroke="none"></circle><circle r="3.3421052631578947" cx="711.1111111111112" cy="746.6666666666667" fill="hsla(0, 0%, 66%, 1.00)" stroke="none"></circle><circle r="3.3421052631578947" cx="755.5555555555557" cy="746.6666666666667" fill="hsla(0, 0%, 66%, 1.00)" stroke="none"></circle><circle r="3.3421052631578947" cx="800.0000000000001" cy="746.6666666666667" fill="hsla(0, 0%, 66%, 1.00)" stroke="none"></circle><circle r="3.3421052631578947" cx="0" cy="800.0000000000001" fill="hsla(0, 0%, 66%, 1.00)" stroke="none"></circle><circle r="3.3421052631578947" cx="44.44444444444444" cy="800.0000000000001" fill="hsla(0, 0%, 66%, 1.00)" stroke="none"></circle><circle r="3.3421052631578947" cx="88.88888888888889" cy="800.0000000000001" fill="hsla(0, 0%, 66%, 1.00)" stroke="none"></circle><circle r="3.3421052631578947" cx="133.33333333333331" cy="800.0000000000001" fill="hsla(0, 0%, 66%, 1.00)" stroke="none"></circle><circle r="3.3421052631578947" cx="177.77777777777777" cy="800.0000000000001" fill="hsla(0, 0%, 66%, 1.00)" stroke="none"></circle><circle r="3.3421052631578947" cx="222.22222222222223" cy="800.0000000000001" fill="hsla(0, 0%, 66%, 1.00)" stroke="none"></circle><circle r="3.3421052631578947" cx="266.6666666666667" cy="800.0000000000001" fill="hsla(0, 0%, 66%, 1.00)" stroke="none"></circle><circle r="3.3421052631578947" cx="311.11111111111114" cy="800.0000000000001" fill="hsla(0, 0%, 66%, 1.00)" stroke="none"></circle><circle r="3.3421052631578947" cx="355.5555555555556" cy="800.0000000000001" fill="hsla(0, 0%, 66%, 1.00)" stroke="none"></circle><circle r="3.3421052631578947" cx="400.00000000000006" cy="800.0000000000001" fill="hsla(0, 0%, 66%, 1.00)" stroke="none"></circle><circle r="3.3421052631578947" cx="444.4444444444445" cy="800.0000000000001" fill="hsla(0, 0%, 66%, 1.00)" stroke="none"></circle><circle r="3.3421052631578947" cx="488.88888888888897" cy="800.0000000000001" fill="hsla(0, 0%, 66%, 1.00)" stroke="none"></circle><circle r="3.3421052631578947" cx="533.3333333333334" cy="800.0000000000001" fill="hsla(0, 0%, 66%, 1.00)" stroke="none"></circle><circle r="3.3421052631578947" cx="577.7777777777778" cy="800.0000000000001" fill="hsla(0, 0%, 66%, 1.00)" stroke="none"></circle><circle r="3.3421052631578947" cx="622.2222222222223" cy="800.0000000000001" fill="hsla(0, 0%, 66%, 1.00)" stroke="none"></circle><circle r="3.3421052631578947" cx="666.6666666666667" cy="800.0000000000001" fill="hsla(0, 0%, 66%, 1.00)" stroke="none"></circle><circle r="3.3421052631578947" cx="711.1111111111112" cy="800.0000000000001" fill="hsla(0, 0%, 66%, 1.00)" stroke="none"></circle><circle r="3.3421052631578947" cx="755.5555555555557" cy="800.0000000000001" fill="hsla(0, 0%, 66%, 1.00)" stroke="none"></circle><circle r="3.3421052631578947" cx="800.0000000000001" cy="800.0000000000001" fill="hsla(0, 0%, 66%, 1.00)" stroke="none"></circle></g></svg>